<?xml version="1.0" standalone="no"?><!DOCTYPE svg PUBLIC "-//W3C//DTD SVG 1.1//EN" "http://www.w3.org/Graphics/SVG/1.1/DTD/svg11.dtd"><svg width="16" height="16" viewBox="0 0 16 16" version="1.1" xmlns="http://www.w3.org/2000/svg" xmlns:xlink="http://www.w3.org/1999/xlink"><defs><style type="text/css"><![CDATA[
@font-face { font-family: ifont; src: url("http://at.alicdn.com/t/font_1442373896_4754455.eot?#iefix") format("embedded-opentype"), url("http://at.alicdn.com/t/font_1442373896_4754455.woff") format("woff"), url("http://at.alicdn.com/t/font_1442373896_4754455.ttf") format("truetype"), url("http://at.alicdn.com/t/font_1442373896_4754455.svg#ifont") format("svg"); }

]]></style></defs><g class="transform-group"><g transform="scale(0.015625, 0.015625)"><path d="M870.4 317.3c28.6 0 53 10 72.798 29.8 19.8 19.8 29.602 44 29.602 72.6l0 297c0 27.402-10 51.2-29.602 71.8-19.798 20.602-44 30.8-72.798 30.8L153.6 819.3c-27.4 0-51.2-10.2-71.6-30.8s-30.8-44.398-30.8-71.8l0-297c0-28.6 10.202-53 30.8-72.6 20.4-19.8 44.4-29.8 71.6-29.8l256 0 0-112.6 204.8 184.4-204.8 184.4 0-112.6L194.6 460.9l0 215 634.8 0L829.4 460.7l-153.6 0 0-143.4L870.4 317.3z" fill="#a9b7b7"></path></g></g></svg>