<?xml version="1.0" standalone="no"?><!DOCTYPE svg PUBLIC "-//W3C//DTD SVG 1.1//EN" "http://www.w3.org/Graphics/SVG/1.1/DTD/svg11.dtd"><svg width="16" height="16" viewBox="0 0 16 16" version="1.1" xmlns="http://www.w3.org/2000/svg" xmlns:xlink="http://www.w3.org/1999/xlink"><defs><style type="text/css"><![CDATA[
@font-face { font-family: ifont; src: url("http://at.alicdn.com/t/font_1442373896_4754455.eot?#iefix") format("embedded-opentype"), url("http://at.alicdn.com/t/font_1442373896_4754455.woff") format("woff"), url("http://at.alicdn.com/t/font_1442373896_4754455.ttf") format("truetype"), url("http://at.alicdn.com/t/font_1442373896_4754455.svg#ifont") format("svg"); }

]]></style></defs><g class="transform-group"><g transform="scale(0.015625, 0.015625)"><path d="M537.163099 178.203658 292.371884 355.596857 175.60446 355.596857c-14.896268 0-26.968212 12.07706-26.968212 26.969235l0 258.866792c0 14.892175 12.076036 26.969235 26.968212 26.969235l116.767424 0L537.163099 845.796342c17.831111 12.919241 42.794665 0.182149 42.794665-21.837354L579.957765 200.041012C579.957765 178.020486 554.99421 165.284417 537.163099 178.203658L537.163099 178.203658zM774.257006 503.919974M678.222789 443.989023c1.835811 1.835811 3.669576 5.505387 5.505387 7.339152 25.687032 36.69576 25.687032 88.071871 0 124.767632-1.835811 1.836835-1.835811 3.669576-3.669576 5.506411l-12.845563 12.842493c-11.008728 11.008728-27.520797 11.008728-36.69576 0-11.009751-11.009751-11.009751-27.520797 0-38.529525l5.505387-5.506411 0 0 0 0c20.181645-20.181645 20.181645-55.044664 0-75.226309l0 0-5.505387-5.505387c-11.009751-11.009751-11.009751-27.520797 0-38.530548 11.008728-11.008728 27.522844-11.008728 36.69576 0L678.222789 443.989023 678.222789 443.989023z" fill="#a9b7b7"></path></g></g></svg>